<svg xmlns="http://www.w3.org/2000/svg" aria-hidden="true" style="width:0;height:0;position:absolute;overflow:hidden"><defs><symbol id="icon-home" viewBox="0 0 32 32"><path stroke-linejoin="round" stroke-linecap="round" stroke-width="2.667" d="M26.427 2.667H5.574a2.907 2.907 0 0 0-2.907 2.907v20.853a2.907 2.907 0 0 0 2.907 2.907h20.853a2.907 2.907 0 0 0 2.907-2.907V5.574a2.907 2.907 0 0 0-2.907-2.907zm-17.094 0v26.667M22.667 2.667v26.667M2.667 16h26.667M2.667 9.333h6.667M2.667 22.667h6.667m13.333 0h6.667M22.667 9.333h6.667"/></symbol><symbol id="icon-search" viewBox="0 0 32 32"><path stroke-linejoin="round" stroke-linecap="round" stroke-width="2.667" d="M14.667 25.333c5.891 0 10.667-4.776 10.667-10.667S20.558 3.999 14.667 3.999 4 8.775 4 14.666s4.776 10.667 10.667 10.667zM28 28l-5.8-5.8"/></symbol><symbol id="icon-arrow-left" viewBox="0 0 32 32"><path d="M15.546 5.422c-.25.074-.572.384-5.112 4.916-5.26 5.248-5.1 5.07-5.1 5.662 0 .59-.156.416 5.074 5.634 2.65 2.646 4.9 4.85 4.998 4.898.608.304 1.396.06 1.75-.544.13-.218.15-.31.15-.654-.002-.284-.03-.456-.1-.588-.054-.102-1.72-1.812-3.704-3.8l-3.606-3.612 7.838-.004c6.24 0 7.878-.016 8.03-.07.288-.102.57-.34.732-.616.122-.206.144-.306.144-.644s-.022-.438-.144-.644a1.354 1.354 0 0 0-.776-.616c-.202-.06-1.588-.074-8.034-.074H9.894l3.608-3.612c1.984-1.988 3.652-3.698 3.704-3.8.134-.256.136-.918.004-1.164-.162-.298-.506-.59-.8-.676-.33-.098-.518-.098-.864.008z"/></symbol><symbol id="icon-arrow-right" viewBox="0 0 32 32"><path d="M15.592 5.41a1.373 1.373 0 0 0-.754.612c-.122.208-.144.304-.144.644.002.284.03.456.1.588.052.102 1.72 1.812 3.704 3.8l3.608 3.612h-7.792c-6.446 0-7.832.014-8.034.074-.324.098-.6.316-.776.616-.122.206-.144.306-.144.644 0 .342.022.438.148.652.166.284.424.5.718.606.164.058 1.63.072 8.04.072l7.84.004-3.608 3.612c-1.984 1.988-3.652 3.698-3.704 3.8-.07.132-.098.304-.1.588 0 .344.02.436.15.654.174.298.492.548.804.632.27.072.708.032.946-.088.098-.048 2.348-2.252 4.998-4.898 5.23-5.218 5.074-5.044 5.074-5.634 0-.592.16-.414-5.1-5.662-4.714-4.702-4.854-4.838-5.136-4.92-.342-.1-.538-.102-.838-.008z"/></symbol><symbol id="icon-close" viewBox="0 0 32 32"><path d="m8.507 8.533-.746.748L14.48 16l-6.693 6.693.759.761.761.759L16 17.52l6.693 6.693.761-.759.759-.761L17.52 16l6.72-6.72-.761-.759-.759-.761L16 14.48l-3.347-3.347c-1.84-1.84-3.359-3.346-3.374-3.346s-.363.336-.772.747z"/></symbol><symbol id="icon-heart" viewBox="0 0 32 32"><path d="M8.053 1.177c-.923.091-1.824.293-2.496.558C1.445 3.365-.724 7.545.222 12.023c.304 1.445 1.047 3.113 2.064 4.642 1.783 2.679 4.432 5.422 10.009 10.366a74.23 74.23 0 0 1 2.571 2.4L16 30.556l1.134-1.125a68.343 68.343 0 0 1 2.359-2.21c5.703-5.045 8.425-7.856 10.222-10.555 2.055-3.09 2.727-6.114 1.998-8.99-.693-2.736-2.599-4.882-5.269-5.941-1.166-.459-2.8-.679-4.071-.544-1.282.139-2.325.453-3.493 1.051a9.046 9.046 0 0 0-2.279 1.641L16 4.464l-.601-.581a11.87 11.87 0 0 0-1.106-.939c-.597-.423-1.637-.969-2.345-1.23-1.161-.43-2.747-.649-3.895-.537z"/></symbol></defs></svg>