<svg xmlns="http://www.w3.org/2000/svg" aria-hidden="true" style="position:absolute;width:0;height:0;overflow:hidden"><defs>
<symbol id="icon-home" viewBox="0 0 32 32">
<path stroke-linejoin="round" stroke-linecap="round" stroke-miterlimit="4" stroke-width="2.6667" d="M26.427 2.667h-20.853c-1.605 0-2.907 1.301-2.907 2.907v0 20.853c0 1.605 1.301 2.907 2.907 2.907v0h20.853c1.605 0 2.907-1.301 2.907-2.907v0-20.853c0-1.605-1.301-2.907-2.907-2.907v0zM9.333 2.667v26.667M22.667 2.667v26.667M2.667 16h26.667M2.667 9.333h6.667M2.667 22.667h6.667M22.667 22.667h6.667M22.667 9.333h6.667"></path>
</symbol>
<symbol id="icon-search" viewBox="0 0 32 32">
<path stroke-linejoin="round" stroke-linecap="round" stroke-miterlimit="4" stroke-width="2.6667" d="M14.667 25.333c5.891 0 10.667-4.776 10.667-10.667s-4.776-10.667-10.667-10.667v0c-5.891 0-10.667 4.776-10.667 10.667s4.776 10.667 10.667 10.667v0zM28 28l-5.8-5.8"></path>
</symbol>
<symbol id="icon-arrow-left" viewBox="0 0 32 32">
<path d="M15.546 5.422c-0.25 0.074-0.572 0.384-5.112 4.916-5.26 5.248-5.1 5.070-5.1 5.662 0 0.59-0.156 0.416 5.074 5.634 2.65 2.646 4.9 4.85 4.998 4.898 0.608 0.304 1.396 0.060 1.75-0.544 0.13-0.218 0.15-0.31 0.15-0.654-0.002-0.284-0.030-0.456-0.1-0.588-0.054-0.102-1.72-1.812-3.704-3.8l-3.606-3.612 7.838-0.004c6.24 0 7.878-0.016 8.030-0.070 0.288-0.102 0.57-0.34 0.732-0.616 0.122-0.206 0.144-0.306 0.144-0.644s-0.022-0.438-0.144-0.644c-0.176-0.3-0.452-0.518-0.776-0.616-0.202-0.060-1.588-0.074-8.034-0.074h-7.792l3.608-3.612c1.984-1.988 3.652-3.698 3.704-3.8 0.134-0.256 0.136-0.918 0.004-1.164-0.162-0.298-0.506-0.59-0.8-0.676-0.33-0.098-0.518-0.098-0.864 0.008z"></path>
</symbol>
<symbol id="icon-arrow-right" viewBox="0 0 32 32">
<path d="M15.592 5.41c-0.304 0.094-0.584 0.322-0.754 0.612-0.122 0.208-0.144 0.304-0.144 0.644 0.002 0.284 0.030 0.456 0.1 0.588 0.052 0.102 1.72 1.812 3.704 3.8l3.608 3.612h-7.792c-6.446 0-7.832 0.014-8.034 0.074-0.324 0.098-0.6 0.316-0.776 0.616-0.122 0.206-0.144 0.306-0.144 0.644 0 0.342 0.022 0.438 0.148 0.652 0.166 0.284 0.424 0.5 0.718 0.606 0.164 0.058 1.63 0.072 8.040 0.072l7.84 0.004-3.608 3.612c-1.984 1.988-3.652 3.698-3.704 3.8-0.070 0.132-0.098 0.304-0.1 0.588 0 0.344 0.020 0.436 0.15 0.654 0.174 0.298 0.492 0.548 0.804 0.632 0.27 0.072 0.708 0.032 0.946-0.088 0.098-0.048 2.348-2.252 4.998-4.898 5.23-5.218 5.074-5.044 5.074-5.634 0-0.592 0.16-0.414-5.1-5.662-4.714-4.702-4.854-4.838-5.136-4.92-0.342-0.1-0.538-0.102-0.838-0.008z"></path>
</symbol>
<symbol id="icon-close" viewBox="0 0 32 32">
<path d="M8.507 8.533l-0.746 0.748 6.719 6.719-6.693 6.693 0.759 0.761 0.761 0.759 6.693-6.693 6.693 6.693 0.761-0.759 0.759-0.761-6.693-6.693 6.72-6.72-0.761-0.759-0.759-0.761-6.72 6.72-3.347-3.347c-1.84-1.84-3.359-3.346-3.374-3.346s-0.363 0.336-0.772 0.747z"></path>
</symbol>
<symbol id="icon-heart" viewBox="0 0 32 32">
<path d="M8.053 1.177c-0.923 0.091-1.824 0.293-2.496 0.558-4.112 1.63-6.281 5.81-5.335 10.288 0.304 1.445 1.047 3.113 2.064 4.642 1.783 2.679 4.432 5.422 10.009 10.366 0.791 0.699 1.947 1.781 2.571 2.4l1.134 1.125 1.134-1.125c0.624-0.619 1.685-1.614 2.359-2.21 5.703-5.045 8.425-7.856 10.222-10.555 2.055-3.090 2.727-6.114 1.998-8.99-0.693-2.736-2.599-4.882-5.269-5.941-1.166-0.459-2.8-0.679-4.071-0.544-1.282 0.139-2.325 0.453-3.493 1.051-0.878 0.453-1.543 0.93-2.279 1.641l-0.601 0.581-0.601-0.581c-0.331-0.32-0.83-0.743-1.106-0.939-0.597-0.423-1.637-0.969-2.345-1.23-1.161-0.43-2.747-0.649-3.895-0.537z"></path>
</symbol>
</defs>
</svg>